<?xml version="1.0" standalone="no"?><!DOCTYPE svg PUBLIC "-//W3C//DTD SVG 1.1//EN" "http://www.w3.org/Graphics/SVG/1.1/DTD/svg11.dtd"><svg class="icon" width="48px" height="48.00px" viewBox="0 0 1024 1024" version="1.1" xmlns="http://www.w3.org/2000/svg"><path d="M780.7 509.4c-1.4-4.1-5.8-6.4-10-5L467.3 599c-4.2 1.3-6.5 5.7-5.2 9.8 1.1 3.3 4.2 5.4 7.6 5.4 0.7 0 1.6-0.1 2.4-0.4l303.5-94.7c4-1.2 6.4-5.6 5.1-9.7zM795.4 581.4L491.9 676c-4.1 1.3-6.5 5.7-5.1 9.8 1.1 3.4 4.2 5.5 7.6 5.5 0.8 0 1.6-0.1 2.4-0.4l303.4-94.6c4.1-1.3 6.5-5.7 5.1-9.9-1.3-4.1-5.7-6.4-9.9-5z" fill="#8a8a8a" /><path d="M918 632.5L730.3 107.1c-9-24.3-27.8-42.4-50.8-43.1-3.9 0-8 0.7-11.7 2l-392 136.2c-18.9 6.8-27 25.9-27 45.2 0 3.5 0.3 7 0.7 10.4-16.9 8.4-24.7 28-24.7 47.9 0 5.2 0.5 10.5 1.6 15.9l113.8 545.7c5.9 26.8 23.9 48.9 49.1 49.8 2.3 0 4.6-0.2 7-0.6l407.2-82.6c22.9-5.3 33.6-28 33.6-51.1 0-5.1-0.5-10.4-1.6-15.9l-8.3-40 68.3-23.7c18.8-7 27-26.1 27-45.3 0-8.3-1.5-16.8-4.5-25.4zM798.7 810.9l-407 82.6c-0.6 0.2-1.5 0.3-2.3 0.3-7.6 0.8-21.9-11.2-25.7-31L249.9 317c-0.8-3.8-1.2-7.6-1.2-11.2 0-11.2 3.6-19.5 7.9-24.1l184.5 516.7c8.9 24.2 27.6 42.4 50.7 43h0.3c3.8 0 7.7-0.6 11.5-1.9l301.1-104.7 7.7 36.9c0.8 3.8 1.2 7.5 1.2 11.1-0.2 16.9-8.5 27.4-14.9 28.1zM887.6 681l-392 136.3c-1.2 0.4-2.4 0.5-3.8 0.6-7.7 0.6-22.1-9.6-28.1-27.3L275.9 265.1c-2.2-6-3.2-12.1-3.2-17.6 0-13.5 5.8-21.5 11.1-23l392-136.4c1.2-0.5 2.5-0.6 3.8-0.6 7.8-0.5 22.2 9.5 28.3 27.4l187.6 525.5c2.2 6 3.1 12.1 3.1 17.5 0.1 13.4-5.7 21.5-11 23.1z" fill="#8a8a8a" /><path d="M756.1 432.4c-1.3-4.1-5.8-6.4-10-5.1l-303.6 94.6c-4.1 1.3-6.5 5.7-5.2 9.8 1.1 3.3 4.2 5.5 7.6 5.5 0.8 0 1.6-0.1 2.4-0.4l303.6-94.6c4.2-1.2 6.5-5.7 5.2-9.8zM682.1 201.3c-1.3-4.1-5.8-6.4-10-5.1l-303.5 94.6c-4.2 1.3-6.5 5.7-5.2 9.8 1.1 3.3 4.2 5.5 7.6 5.5 0.7 0 1.6-0.2 2.4-0.4l303.5-94.6c4.1-1.2 6.4-5.6 5.2-9.8zM706.7 278.3c-1.4-4.1-5.8-6.4-10-5.1l-303.5 94.7c-4.2 1.3-6.5 5.7-5.1 9.8 1.1 3.3 4.2 5.4 7.6 5.4 0.7 0 1.6-0.1 2.4-0.4l303.6-94.6c4-1.2 6.4-5.7 5-9.8zM731.4 355.5c-1.3-4.1-5.8-6.4-10-5.1L417.8 445c-4.1 1.3-6.4 5.7-5.1 9.9 1.1 3.3 4.2 5.5 7.6 5.5 0.8 0 1.6-0.1 2.4-0.4l303.5-94.6c4.2-1.5 6.5-5.9 5.2-9.9zM243.7 578.8c-2-8-4.8-14.9-7.9-20.6-2.9-3.9-4.6-8.6-10.7-11.4l-79.3-121.1c-2.7-4-7.7-6.1-12.6-5-4.9 1-8.5 4.9-9.3 9.8l-21.4 149.9c-0.1 0.8-0.2 1.7-0.1 2.6-0.7 3.1-0.9 6-0.9 9.3 0 6.1 1 13 2.8 20.3l78.1 313.5c1.9 7.9 4.7 14.9 7.9 20.6 3.8 5.2 5.6 11.6 17.8 13.2 0.8 0 1.6-0.1 2.4-0.2l1-0.2 100.3-24.3c7.9-2.5 10.1-8 11.3-11.4 1.2-3.7 1.6-7.3 1.6-11.3 0-6.1-0.9-13-2.7-20.3l-78.3-313.4zM143.1 464.9l55.3 84.5-27 6.6-36.1 8.8-6.7 1.6 14.5-101.5z m68.1 470.5c-1.7-3.1-4.2-8.7-5.7-14.9l-78.1-313.4c-1.5-5.8-2.1-11.1-2.1-14.8v-1l15.2-3.7 6.6-1.6 77.1 338.6c0.7 3.3 3.5 5.6 6.7 6l-19.7 4.8z m25.4-6.1c2.5-1.7 3.8-4.9 3.1-8.1l-77.2-338.9 14.2-3.5 7.1-1.7L261 916.5c0.6 2.7 2.6 4.8 5.1 5.7l-29.5 7.1z m64.2-16.7v1.1l-26.3 6.4c1.7-1.8 2.6-4.4 1.9-7.1l-77.3-339.7 15.9-3.8c1.7 3.1 4.2 8.8 5.7 14.9L298.9 898l11.5-2.7-11.5 2.8c1.3 5.5 1.9 10.8 1.9 14.5z" fill="#8a8a8a" /></svg>