<?xml version="1.0" standalone="no"?><!DOCTYPE svg PUBLIC "-//W3C//DTD SVG 1.1//EN" "http://www.w3.org/Graphics/SVG/1.1/DTD/svg11.dtd"><svg class="icon" width="48px" height="48.00px" viewBox="0 0 1024 1024" version="1.1" xmlns="http://www.w3.org/2000/svg"><path d="M 128 128 h 768 c 35.348 0 64 28.652 64 64 v 640 c 0 35.348 -28.652 64 -64 64 H 128 c -35.348 0 -64 -28.652 -64 -64 V 192 c 0 -35.348 28.652 -64 64 -64 Z m 751.788 285.652 a 61.228 61.228 0 0 0 -88.108 -8.32 L 517.12 237.44 a 68.908 68.908 0 0 0 -14.72 -33.492 a 61.228 61.228 0 0 0 -88.108 -8.32 a 62.292 62.292 0 0 0 -21.332 39.892 L 243.628 323.628 A 60.16 60.16 0 0 0 184.96 311.04 a 61.44 61.44 0 0 0 -42.668 77.652 a 60.16 60.16 0 0 0 52.48 43.948 l 35.628 157.228 a 64 64 0 0 0 -27.732 52.264 A 61.868 61.868 0 0 0 265.388 704 a 66.132 66.132 0 0 0 39.892 -14.72 l 149.332 88.108 c 0 4.264 -2.132 8.32 -2.132 12.584 c 0 34.76 28.176 62.936 62.932 62.936 c 34.76 0 62.936 -28.176 62.936 -62.936 c 0.196 -10.156 -1.92 -20.22 -6.188 -29.44 L 804.268 512 a 66.132 66.132 0 0 0 64 -8.32 a 62.08 62.08 0 0 0 10.452 -90.24 l 1.068 0.212 Z m -109.016 75.52 l -228.48 243.2 a 49.28 49.28 0 0 0 -16.852 -4.264 l -33.492 -157.228 a 83.2 83.2 0 0 0 46.08 -69.12 l 232.744 -12.588 Z m -293.544 253.656 L 327.892 654.72 c 0 -4.268 2.136 -8.32 2.136 -12.588 a 61.228 61.228 0 0 0 -4.268 -18.772 l 77.652 -62.932 a 74.668 74.668 0 0 0 48.216 16.852 l 33.492 157.228 l -8.32 8.32 h 0.428 Z M 273.92 581.332 l -35.628 -157.224 l 136.32 58.664 c 0 4.268 -2.132 8.32 -2.132 12.588 a 86.828 86.828 0 0 0 6.188 33.492 l -77.656 60.8 a 59.52 59.52 0 0 0 -27.092 -8.32 Z M 265.6 359.04 l 138.452 -79.572 c 2.136 2.132 2.136 4.264 4.268 6.184 a 79.788 79.788 0 0 0 27.308 18.776 v 111.144 a 72.32 72.32 0 0 0 -43.948 29.44 L 265.812 390.4 c 0.9 -10.44 0.76 -20.948 -0.424 -31.36 h 0.212 Z m 241.068 -79.572 l 264.104 161.492 V 448 l -238.932 14.72 a 85.332 85.332 0 0 0 -54.612 -46.08 v -112 A 85.332 85.332 0 0 0 496 294.188 a 37.548 37.548 0 0 0 10.668 -14.72 Z" fill="#8a8a8a" /></svg>